<?xml version="1.0" encoding="UTF-8"?>
<svg width="15px" height="14px" viewBox="0 0 15 14" version="1.1" xmlns="http://www.w3.org/2000/svg" xmlns:xlink="http://www.w3.org/1999/xlink">
    <!-- Generator: Sketch 59.1 (86144) - https://sketch.com -->
    <title>Search Icon@2x</title>
    <desc>Created with Sketch.</desc>
    <g id="vr实时看板" stroke="none" stroke-width="1" fill="none" fill-rule="evenodd" fill-opacity="0.4">
        <g id="实时看板-代表" transform="translate(-219.000000, -86.000000)" fill="#252A36">
            <path d="M225.220525,86 C228.656026,86 231.44105,88.7850239 231.44105,92.220525 C231.44105,93.4742041 231.07018,94.6412619 230.432168,95.6179708 C230.43688,95.6204508 230.441726,95.6247172 230.446536,95.6290478 L232.856382,97.7988829 C233.182504,98.0925243 233.234683,98.5765814 232.991495,98.9324504 L232.917831,99.0260879 C232.595999,99.3835184 232.044911,99.4119833 231.690926,99.0932531 L229.286879,96.9280673 C228.196464,97.8707989 226.775089,98.44105 225.220525,98.44105 C221.785024,98.44105 219,95.6560261 219,92.220525 C219,88.7850239 221.785024,86 225.220525,86 Z M225.220525,87.244105 C222.472124,87.244105 220.244105,89.4721241 220.244105,92.220525 C220.244105,94.9689259 222.472124,97.196945 225.220525,97.196945 C227.968926,97.196945 230.196945,94.9689259 230.196945,92.220525 C230.196945,89.4721241 227.968926,87.244105 225.220525,87.244105 Z" id="Search-Icon"></path>
        </g>
    </g>
</svg>